<svg width="130" height="40" viewBox="0 0 130 40" fill="none" xmlns="http://www.w3.org/2000/svg" role="img" aria-label="Email">
  <rect x="0.5" y="0.5" width="129" height="39" rx="8" fill="#111418" stroke="#2B3139"/>
  <svg x="13" y="10" width="28" height="21" viewBox="52 42 88 66">
    <path fill="#4285F4" d="M58 108h14V74L52 59v43c0 3.32 2.69 6 6 6"/>
    <path fill="#34A853" d="M120 108h14c3.32 0 6-2.69 6-6V59l-20 15"/>
    <path fill="#FBBC04" d="M120 48v26l20-15v-8c0-7.42-8.47-11.65-14.4-7.2"/>
    <path fill="#EA4335" d="M72 74V48l24 18 24-18v26L96 92"/>
    <path fill="#C5221F" d="M52 51v8l20 15V48l-5.6-4.2c-5.94-4.45-14.4-.22-14.4 7.2"/>
  </svg>
  <text x="49" y="25" fill="#F4F4F5" font-family="Arial,Helvetica,sans-serif" font-size="12" font-weight="700" letter-spacing="1.6">EMAIL</text>
</svg>
