<svg width="1200" height="326" viewBox="0 0 1200 326" fill="none" xmlns="http://www.w3.org/2000/svg" role="img" aria-labelledby="title desc">
  <title id="title">What I Build</title>
  <desc id="desc">Computer Vision, AI Applications and Systems Integration.</desc>
  <defs>
    <linearGradient id="card" x1="0" y1="0" x2="1" y2="1"><stop stop-color="#15181D"/><stop offset="1" stop-color="#0E1115"/></linearGradient>
    <filter id="blueGlow" x="-100%" y="-100%" width="300%" height="300%"><feGaussianBlur stdDeviation="6"/></filter>
    <filter id="violetGlow" x="-100%" y="-100%" width="300%" height="300%"><feGaussianBlur stdDeviation="6"/></filter>
    <filter id="amberGlow" x="-100%" y="-100%" width="300%" height="300%"><feGaussianBlur stdDeviation="6"/></filter>
  </defs>
  <rect x="1" y="1" width="1198" height="324" rx="20" fill="#0D1117" stroke="#252B33"/>
  <g transform="translate(18 18)">
    <rect width="376" height="290" rx="16" fill="url(#card)" stroke="#2A313A"/>
    <rect x="1" y="1" width="374" height="3" rx="1.5" fill="#38BDF8"/>
    <rect x="150" y="40" width="76" height="76" rx="18" fill="#111820" stroke="#38BDF8" stroke-opacity="0.55"/>
    <rect x="157" y="47" width="62" height="62" rx="13" fill="#38BDF8" fill-opacity="0.05"/>
    <circle cx="188" cy="78" r="27" fill="#38BDF8" fill-opacity="0.12" filter="url(#blueGlow)"/>
    <g transform="translate(172 62)" stroke="#38BDF8" stroke-width="2.4" stroke-linecap="round">
      <path d="M2 16s5-9 14-9 14 9 14 9-5 9-14 9S2 16 2 16Z"/><circle cx="16" cy="16" r="5"/><circle cx="16" cy="16" r="1.6" fill="#38BDF8"/>
    </g>
    <text x="188" y="165" text-anchor="middle" fill="#F4F4F5" font-family="Arial, Helvetica, sans-serif" font-size="25" font-weight="700">Computer Vision</text>
    <text x="188" y="207" text-anchor="middle" fill="#AAB2BD" font-family="Arial, Helvetica, sans-serif" font-size="15">Real-time detection, tracking, counting</text>
    <text x="188" y="233" text-anchor="middle" fill="#AAB2BD" font-family="Arial, Helvetica, sans-serif" font-size="15">and visual inspection systems.</text>
    <text x="188" y="269" text-anchor="middle" fill="#38BDF8" font-family="'Courier New', monospace" font-size="11" letter-spacing="1.5">YOLO · OPENCV · TRACKING</text>
  </g>
  <g transform="translate(412 18)">
    <rect width="376" height="290" rx="16" fill="url(#card)" stroke="#2A313A"/>
    <rect x="1" y="1" width="374" height="3" rx="1.5" fill="#A78BFA"/>
    <rect x="150" y="40" width="76" height="76" rx="18" fill="#171421" stroke="#A78BFA" stroke-opacity="0.55"/>
    <rect x="157" y="47" width="62" height="62" rx="13" fill="#A78BFA" fill-opacity="0.05"/>
    <circle cx="188" cy="78" r="27" fill="#A78BFA" fill-opacity="0.12" filter="url(#violetGlow)"/>
    <g transform="translate(171 61)" stroke="#A78BFA" stroke-width="2.2" stroke-linecap="round" stroke-linejoin="round">
      <path d="M8 25c-4-5-2-13 3-15 1-6 11-8 15-3 6-1 10 5 8 10 3 5-1 12-7 12H12c-2 0-3-2-4-4Z"/>
      <path d="M17 9v20M12 14h5M17 21h6M23 13v8M9 22h8"/>
    </g>
    <text x="188" y="165" text-anchor="middle" fill="#F4F4F5" font-family="Arial, Helvetica, sans-serif" font-size="25" font-weight="700">AI Applications</text>
    <text x="188" y="207" text-anchor="middle" fill="#AAB2BD" font-family="Arial, Helvetica, sans-serif" font-size="15">Data preparation, model development</text>
    <text x="188" y="233" text-anchor="middle" fill="#AAB2BD" font-family="Arial, Helvetica, sans-serif" font-size="15">and practical intelligent software.</text>
    <text x="188" y="269" text-anchor="middle" fill="#A78BFA" font-family="'Courier New', monospace" font-size="11" letter-spacing="1.5">PYTORCH · TENSORFLOW · ML</text>
  </g>
  <g transform="translate(806 18)">
    <rect width="376" height="290" rx="16" fill="url(#card)" stroke="#2A313A"/>
    <rect x="1" y="1" width="374" height="3" rx="1.5" fill="#F59E0B"/>
    <rect x="150" y="40" width="76" height="76" rx="18" fill="#1D1710" stroke="#F59E0B" stroke-opacity="0.55"/>
    <rect x="157" y="47" width="62" height="62" rx="13" fill="#F59E0B" fill-opacity="0.05"/>
    <circle cx="188" cy="78" r="27" fill="#F59E0B" fill-opacity="0.12" filter="url(#amberGlow)"/>
    <g transform="translate(172 62)" stroke="#F59E0B" stroke-width="2.2" stroke-linecap="round" stroke-linejoin="round">
      <rect x="2" y="3" width="12" height="12" rx="2"/><rect x="18" y="17" width="12" height="12" rx="2"/><path d="M14 9h8v8M8 15v9h10"/>
    </g>
    <text x="188" y="165" text-anchor="middle" fill="#F4F4F5" font-family="Arial, Helvetica, sans-serif" font-size="25" font-weight="700">Systems &amp; Integration</text>
    <text x="188" y="207" text-anchor="middle" fill="#AAB2BD" font-family="Arial, Helvetica, sans-serif" font-size="15">APIs, databases and operational flows</text>
    <text x="188" y="233" text-anchor="middle" fill="#AAB2BD" font-family="Arial, Helvetica, sans-serif" font-size="15">connected in one clear architecture.</text>
    <text x="188" y="269" text-anchor="middle" fill="#F59E0B" font-family="'Courier New', monospace" font-size="11" letter-spacing="1.5">REST API · SQL · DESKTOP</text>
  </g>
</svg>
