<svg width="1200" height="292" viewBox="0 0 1200 292" fill="none" xmlns="http://www.w3.org/2000/svg" role="img" aria-labelledby="title desc">
  <title id="title">What I Build</title><desc id="desc">Computer Vision, AI Applications and Systems Integration.</desc>
  <defs>
    <linearGradient id="card" x1="0" y1="0" x2="1" y2="1"><stop stop-color="#151A21"/><stop offset="1" stop-color="#0D1117"/></linearGradient>
    <filter id="glow" x="-80%" y="-80%" width="260%" height="260%"><feGaussianBlur stdDeviation="6"/></filter>
  </defs>
  <rect x="1" y="1" width="1198" height="290" rx="20" fill="#0D1117" stroke="#252C35"/>
  <g transform="translate(18 18)">
    <rect width="376" height="256" rx="16" fill="url(#card)" stroke="#2A3440"/><rect x="1" y="1" width="374" height="3" rx="1.5" fill="#38BDF8"/>
    <circle cx="188" cy="74" r="42" fill="#38BDF8" fill-opacity=".08"/><circle cx="188" cy="74" r="30" fill="#38BDF8" fill-opacity=".12" filter="url(#glow)"/>
    <g transform="translate(168 54)" stroke="#38BDF8" stroke-width="2.5" stroke-linecap="round"><path d="M1 20s7-11 19-11 19 11 19 11-7 11-19 11S1 20 1 20Z"/><circle cx="20" cy="20" r="6"/><circle cx="20" cy="20" r="2" fill="#38BDF8"/></g>
    <text x="188" y="146" text-anchor="middle" fill="#F5F7FA" font-family="Arial,sans-serif" font-size="25" font-weight="700">Computer Vision</text>
    <text x="188" y="188" text-anchor="middle" fill="#AAB4C0" font-family="Arial,sans-serif" font-size="15">Detection, tracking, counting and</text><text x="188" y="214" text-anchor="middle" fill="#AAB4C0" font-family="Arial,sans-serif" font-size="15">visual inspection from live imagery.</text>
  </g>
  <g transform="translate(412 18)">
    <rect width="376" height="256" rx="16" fill="url(#card)" stroke="#332D47"/><rect x="1" y="1" width="374" height="3" rx="1.5" fill="#A78BFA"/>
    <circle cx="188" cy="74" r="42" fill="#A78BFA" fill-opacity=".08"/><circle cx="188" cy="74" r="30" fill="#A78BFA" fill-opacity=".12" filter="url(#glow)"/>
    <g transform="translate(168 54)" stroke="#A78BFA" stroke-width="2.4" stroke-linecap="round" stroke-linejoin="round"><path d="M9 32c-6-5-4-14 1-17 1-7 12-10 17-4 7-1 12 6 9 12 3 6-2 13-9 13H13c-2 0-3-2-4-4Z"/><path d="M20 11v25M14 18h6M20 27h8M28 16v11M10 29h10"/></g>
    <text x="188" y="146" text-anchor="middle" fill="#F5F7FA" font-family="Arial,sans-serif" font-size="25" font-weight="700">AI Applications</text>
    <text x="188" y="188" text-anchor="middle" fill="#AAB4C0" font-family="Arial,sans-serif" font-size="15">Data preparation, model development</text><text x="188" y="214" text-anchor="middle" fill="#AAB4C0" font-family="Arial,sans-serif" font-size="15">and practical intelligent software.</text>
  </g>
  <g transform="translate(806 18)">
    <rect width="376" height="256" rx="16" fill="url(#card)" stroke="#46341D"/><rect x="1" y="1" width="374" height="3" rx="1.5" fill="#F59E0B"/>
    <circle cx="188" cy="74" r="42" fill="#F59E0B" fill-opacity=".08"/><circle cx="188" cy="74" r="30" fill="#F59E0B" fill-opacity=".12" filter="url(#glow)"/>
    <g transform="translate(168 54)" stroke="#F59E0B" stroke-width="2.4" stroke-linecap="round" stroke-linejoin="round"><rect x="2" y="3" width="15" height="15" rx="3"/><rect x="23" y="22" width="15" height="15" rx="3"/><path d="M17 10h11v12M9 18v12h14"/></g>
    <text x="188" y="146" text-anchor="middle" fill="#F5F7FA" font-family="Arial,sans-serif" font-size="25" font-weight="700">Systems &amp; Integration</text>
    <text x="188" y="188" text-anchor="middle" fill="#AAB4C0" font-family="Arial,sans-serif" font-size="15">APIs, databases and application flows</text><text x="188" y="214" text-anchor="middle" fill="#AAB4C0" font-family="Arial,sans-serif" font-size="15">joined in a reliable architecture.</text>
  </g>
</svg>
