<svg width="1200" height="238" viewBox="0 0 1200 238" fill="none" xmlns="http://www.w3.org/2000/svg" role="img" aria-labelledby="title desc">
  <title id="title">What I Build</title>
  <desc id="desc">Computer Vision, Autonomous Systems and Applied AI.</desc>
  <defs>
    <linearGradient id="card" x1="0" y1="0" x2="1" y2="1">
      <stop stop-color="#151A1F"/><stop offset="1" stop-color="#0D1014"/>
    </linearGradient>
    <filter id="glow" x="-100%" y="-100%" width="300%" height="300%"><feGaussianBlur stdDeviation="4"/></filter>
  </defs>
  <rect x="1" y="1" width="1198" height="236" rx="18" fill="#0D1117" stroke="#252B33"/>
  <g transform="translate(18 18)">
    <rect width="376" height="202" rx="14" fill="url(#card)" stroke="#2A313A"/>
    <rect width="376" height="3" rx="1.5" fill="#0FF181" fill-opacity="0.75"/>
    <circle cx="54" cy="57" r="25" fill="#0FF181" fill-opacity="0.08" stroke="#0FF181" stroke-opacity="0.35"/>
    <g transform="translate(38 41)" stroke="#0FF181" stroke-width="2" stroke-linecap="round">
      <circle cx="16" cy="16" r="8"/><circle cx="16" cy="16" r="2" fill="#0FF181"/>
      <path d="M16 0v5M16 27v5M0 16h5M27 16h5"/>
    </g>
    <text x="30" y="112" fill="#F4F4F5" font-family="Arial, Helvetica, sans-serif" font-size="24" font-weight="700">Computer Vision</text>
    <text x="30" y="146" fill="#AAB2BD" font-family="Arial, Helvetica, sans-serif" font-size="15">Detection, tracking, counting and</text>
    <text x="30" y="170" fill="#AAB2BD" font-family="Arial, Helvetica, sans-serif" font-size="15">visual inspection in real time.</text>
    <circle cx="340" cy="170" r="4" fill="#0FF181" filter="url(#glow)"/>
  </g>
  <g transform="translate(412 18)">
    <rect width="376" height="202" rx="14" fill="url(#card)" stroke="#2A313A"/>
    <rect width="376" height="3" rx="1.5" fill="#0FF181" fill-opacity="0.75"/>
    <circle cx="54" cy="57" r="25" fill="#0FF181" fill-opacity="0.08" stroke="#0FF181" stroke-opacity="0.35"/>
    <g transform="translate(36 43)" stroke="#0FF181" stroke-width="2" stroke-linecap="round" stroke-linejoin="round">
      <path d="M7 9h22l4 8H3zM18 9V3M13 17l-3 8M23 17l3 8"/>
      <circle cx="3" cy="5" r="3"/><circle cx="33" cy="5" r="3"/>
      <path d="M6 5h8M22 5h8"/>
    </g>
    <text x="30" y="112" fill="#F4F4F5" font-family="Arial, Helvetica, sans-serif" font-size="24" font-weight="700">Autonomous Systems</text>
    <text x="30" y="146" fill="#AAB2BD" font-family="Arial, Helvetica, sans-serif" font-size="15">UAV missions, route planning and</text>
    <text x="30" y="170" fill="#AAB2BD" font-family="Arial, Helvetica, sans-serif" font-size="15">simulation-driven validation.</text>
    <circle cx="340" cy="170" r="4" fill="#0FF181" filter="url(#glow)"/>
  </g>
  <g transform="translate(806 18)">
    <rect width="376" height="202" rx="14" fill="url(#card)" stroke="#2A313A"/>
    <rect width="376" height="3" rx="1.5" fill="#0FF181" fill-opacity="0.75"/>
    <circle cx="54" cy="57" r="25" fill="#0FF181" fill-opacity="0.08" stroke="#0FF181" stroke-opacity="0.35"/>
    <g transform="translate(38 41)" stroke="#0FF181" stroke-width="2">
      <circle cx="16" cy="16" r="5"/><circle cx="4" cy="6" r="3"/><circle cx="28" cy="5" r="3"/><circle cx="5" cy="28" r="3"/><circle cx="29" cy="27" r="3"/>
      <path d="M8 8l5 5M24 8l-5 5M8 25l5-5M25 24l-6-5"/>
    </g>
    <text x="30" y="112" fill="#F4F4F5" font-family="Arial, Helvetica, sans-serif" font-size="24" font-weight="700">Applied AI</text>
    <text x="30" y="146" fill="#AAB2BD" font-family="Arial, Helvetica, sans-serif" font-size="15">Practical intelligence designed</text>
    <text x="30" y="170" fill="#AAB2BD" font-family="Arial, Helvetica, sans-serif" font-size="15">around measurable outcomes.</text>
    <circle cx="340" cy="170" r="4" fill="#0FF181" filter="url(#glow)"/>
  </g>
</svg>
