<svg width="1200" height="274" viewBox="0 0 1200 274" fill="none" xmlns="http://www.w3.org/2000/svg" role="img" aria-labelledby="title desc">
  <title id="title">Selected Work</title>
  <desc id="desc">Drone inventory intelligence, UAV solar panel inspection and a space biology knowledge engine.</desc>
  <rect x="1" y="1" width="1198" height="272" rx="18" fill="#0D1117" stroke="#252B33"/>
  <g font-family="Arial, Helvetica, sans-serif">
    <g transform="translate(20 18)">
      <rect width="1160" height="70" rx="12" fill="#12171C" stroke="#29313A"/>
      <rect width="4" height="70" rx="2" fill="#0FF181"/>
      <text x="28" y="43" fill="#0FF181" font-size="13" font-weight="700" letter-spacing="2">01</text>
      <text x="82" y="35" fill="#F4F4F5" font-size="19" font-weight="700">Drone-Assisted Inventory Intelligence</text>
      <text x="82" y="56" fill="#9EA7B3" font-size="13">Real-time pallet detection, tracking and counting through autonomous UAV workflows.</text>
      <circle cx="1126" cy="35" r="12" fill="#0FF181" fill-opacity="0.08" stroke="#0FF181" stroke-opacity="0.35"/>
      <path d="m1121 35 4 4 7-8" stroke="#0FF181" stroke-width="2" stroke-linecap="round" stroke-linejoin="round"/>
    </g>
    <g transform="translate(20 102)">
      <rect width="1160" height="70" rx="12" fill="#12171C" stroke="#29313A"/>
      <rect width="4" height="70" rx="2" fill="#0FF181"/>
      <text x="28" y="43" fill="#0FF181" font-size="13" font-weight="700" letter-spacing="2">02</text>
      <text x="82" y="35" fill="#F4F4F5" font-size="19" font-weight="700">UAV Solar Panel Inspection</text>
      <text x="82" y="56" fill="#9EA7B3" font-size="13">Thermal and visual analysis for reliable, automated field inspection.</text>
      <circle cx="1126" cy="35" r="12" fill="#0FF181" fill-opacity="0.08" stroke="#0FF181" stroke-opacity="0.35"/>
      <path d="m1121 35 4 4 7-8" stroke="#0FF181" stroke-width="2" stroke-linecap="round" stroke-linejoin="round"/>
    </g>
    <g transform="translate(20 186)">
      <rect width="1160" height="70" rx="12" fill="#12171C" stroke="#29313A"/>
      <rect width="4" height="70" rx="2" fill="#0FF181"/>
      <text x="28" y="43" fill="#0FF181" font-size="13" font-weight="700" letter-spacing="2">03</text>
      <text x="82" y="35" fill="#F4F4F5" font-size="19" font-weight="700">Space Biology Knowledge Engine</text>
      <text x="82" y="56" fill="#9EA7B3" font-size="13">Context-aware knowledge retrieval for NASA space-biology research.</text>
      <circle cx="1126" cy="35" r="12" fill="#0FF181" fill-opacity="0.08" stroke="#0FF181" stroke-opacity="0.35"/>
      <path d="m1121 35 4 4 7-8" stroke="#0FF181" stroke-width="2" stroke-linecap="round" stroke-linejoin="round"/>
    </g>
  </g>
</svg>
