<svg width="1200" height="596" viewBox="0 0 1200 596" fill="none" xmlns="http://www.w3.org/2000/svg" role="img" aria-labelledby="title desc">
  <title id="title">Technology Stack</title><desc id="desc">Technologies grouped into four balanced panels with a name beneath every icon.</desc>
  <defs>
    <linearGradient id="panel" x1="0" y1="0" x2="1" y2="1"><stop stop-color="#141920"/><stop offset="1" stop-color="#0D1117"/></linearGradient>
    <style>.h{font:700 19px Arial,sans-serif;fill:#F4F7FA}.n{font:600 11px Arial,sans-serif;fill:#C5CFDA}.m{font:700 19px Arial,sans-serif;text-anchor:middle;dominant-baseline:middle}.tile{fill:#171D25;stroke:#2B3541}</style>
  </defs>
  <rect x="1" y="1" width="1198" height="594" rx="20" fill="#0B0F14" stroke="#252D37"/>

  <g transform="translate(18 18)"><rect width="573" height="271" rx="16" fill="url(#panel)" stroke="#293644"/><rect width="4" height="271" rx="2" fill="#38BDF8"/><circle cx="30" cy="31" r="7" fill="#38BDF8"/><text x="48" y="38" class="h">AI &amp; Computer Vision</text>
    <g transform="translate(25 65)"><rect class="tile" width="116" height="84" rx="13"/><text x="58" y="32" class="m" fill="#FFD43B">Py</text><text x="58" y="66" class="n" text-anchor="middle">Python</text></g>
    <g transform="translate(161 65)"><rect class="tile" width="116" height="84" rx="13"/><circle cx="58" cy="31" r="18" stroke="#A78BFA" stroke-width="3"/><circle cx="58" cy="31" r="5" fill="#A78BFA"/><text x="58" y="66" class="n" text-anchor="middle">YOLO</text></g>
    <g transform="translate(297 65)"><rect class="tile" width="116" height="84" rx="13"/><circle cx="52" cy="27" r="8" fill="#FF3B30"/><circle cx="66" cy="35" r="8" fill="#00C853"/><circle cx="48" cy="40" r="8" fill="#2979FF"/><text x="58" y="66" class="n" text-anchor="middle">OpenCV</text></g>
    <g transform="translate(433 65)"><rect class="tile" width="116" height="84" rx="13"/><path d="M42 38c15 8 28-4 22-17M47 20c11-7 24 2 21 13" stroke="#EE4C2C" stroke-width="4" stroke-linecap="round"/><text x="58" y="66" class="n" text-anchor="middle">PyTorch</text></g>
    <g transform="translate(25 165)"><rect class="tile" width="116" height="84" rx="13"/><path d="M42 18v29l17 9V27l15-9v29" stroke="#FF6F00" stroke-width="4" stroke-linejoin="round"/><text x="58" y="66" class="n" text-anchor="middle">TensorFlow</text></g>
    <g transform="translate(161 165)"><rect class="tile" width="116" height="84" rx="13"/><text x="58" y="31" class="m" fill="#D00000">K</text><text x="58" y="66" class="n" text-anchor="middle">Keras</text></g>
    <g transform="translate(297 165)"><rect class="tile" width="116" height="84" rx="13"/><text x="58" y="31" class="m" fill="#4D77CF">NumPy</text><text x="58" y="66" class="n" text-anchor="middle">NumPy</text></g>
    <g transform="translate(433 165)"><rect class="tile" width="116" height="84" rx="13"/><circle cx="58" cy="31" r="16" fill="#F89939"/><path d="M47 32c7-8 15-9 23-2" stroke="#3499CD" stroke-width="4"/><text x="58" y="66" class="n" text-anchor="middle">scikit-image</text></g>
  </g>

  <g transform="translate(609 18)"><rect width="573" height="271" rx="16" fill="url(#panel)" stroke="#3B314A"/><rect width="4" height="271" rx="2" fill="#A78BFA"/><circle cx="30" cy="31" r="7" fill="#A78BFA"/><text x="48" y="38" class="h">Languages &amp; Applications</text>
    <g transform="translate(25 65)"><rect class="tile" width="116" height="84" rx="13"/><text x="58" y="31" class="m" fill="#659AD2">C++</text><text x="58" y="66" class="n" text-anchor="middle">C++</text></g>
    <g transform="translate(161 65)"><rect class="tile" width="116" height="84" rx="13"/><text x="58" y="31" class="m" fill="#9B4F96">C#</text><text x="58" y="66" class="n" text-anchor="middle">C#</text></g>
    <g transform="translate(297 65)"><rect class="tile" width="116" height="84" rx="13"/><text x="58" y="31" class="m" fill="#F89820">Java</text><text x="58" y="66" class="n" text-anchor="middle">Java</text></g>
    <g transform="translate(433 65)"><rect class="tile" width="116" height="84" rx="13"/><rect x="42" y="15" width="32" height="32" rx="5" fill="#F7DF1E"/><text x="58" y="32" class="m" font-size="13" fill="#16191D">JS</text><text x="58" y="66" class="n" text-anchor="middle">JavaScript</text></g>
    <g transform="translate(25 165)"><rect class="tile" width="116" height="84" rx="13"/><path d="M43 15h30l-3 31-12 5-12-5Z" fill="#E34F26"/><text x="58" y="32" class="m" font-size="14" fill="#FFF">5</text><text x="58" y="66" class="n" text-anchor="middle">HTML5</text></g>
    <g transform="translate(161 165)"><rect class="tile" width="116" height="84" rx="13"/><path d="M43 15h30l-3 31-12 5-12-5Z" fill="#1572B6"/><text x="58" y="32" class="m" font-size="14" fill="#FFF">3</text><text x="58" y="66" class="n" text-anchor="middle">CSS3</text></g>
    <g transform="translate(297 165)"><rect class="tile" width="116" height="84" rx="13"/><circle cx="58" cy="31" r="17" fill="#4285F4"/><path d="M58 14a17 17 0 0 1 15 8H58" stroke="#EA4335" stroke-width="7"/><path d="M73 39a17 17 0 0 1-15 9V31" stroke="#34A853" stroke-width="7"/><text x="58" y="66" class="n" text-anchor="middle">Chrome MV3</text></g>
    <g transform="translate(433 165)"><rect class="tile" width="116" height="84" rx="13"/><rect x="39" y="15" width="38" height="32" rx="5" stroke="#A78BFA" stroke-width="3"/><path d="M39 24h38M47 19h1M53 19h1" stroke="#A78BFA" stroke-width="2"/><text x="58" y="66" class="n" text-anchor="middle">WinForms</text></g>
  </g>

  <g transform="translate(18 307)"><rect width="573" height="271" rx="16" fill="url(#panel)" stroke="#493820"/><rect width="4" height="271" rx="2" fill="#F59E0B"/><circle cx="30" cy="31" r="7" fill="#F59E0B"/><text x="48" y="38" class="h">Backend &amp; Data</text>
    <g transform="translate(25 65)"><rect class="tile" width="116" height="84" rx="13"/><text x="58" y="31" class="m" fill="#512BD4">.NET</text><text x="58" y="66" class="n" text-anchor="middle">.NET 8</text></g>
    <g transform="translate(161 65)"><rect class="tile" width="116" height="84" rx="13"/><ellipse cx="58" cy="23" rx="17" ry="7" stroke="#4479A1" stroke-width="3"/><path d="M41 23v18c0 7 34 7 34 0V23M41 32c0 7 34 7 34 0" stroke="#4479A1" stroke-width="3"/><text x="58" y="66" class="n" text-anchor="middle">MySQL</text></g>
    <g transform="translate(297 65)"><rect class="tile" width="116" height="84" rx="13"/><ellipse cx="58" cy="23" rx="17" ry="7" stroke="#CC2927" stroke-width="3"/><path d="M41 23v18c0 7 34 7 34 0V23M41 32c0 7 34 7 34 0" stroke="#CC2927" stroke-width="3"/><text x="58" y="66" class="n" text-anchor="middle">MS SQL</text></g>
    <g transform="translate(433 65)"><rect class="tile" width="116" height="84" rx="13"/><ellipse cx="58" cy="23" rx="17" ry="7" stroke="#0F80CC" stroke-width="3"/><path d="M41 23v18c0 7 34 7 34 0V23M41 32c0 7 34 7 34 0" stroke="#0F80CC" stroke-width="3"/><text x="58" y="66" class="n" text-anchor="middle">SQLite</text></g>
    <g transform="translate(25 165)"><rect class="tile" width="116" height="84" rx="13"/><path d="M40 31h36M47 20l-10 11 10 11M69 20l10 11-10 11" stroke="#22C55E" stroke-width="3" stroke-linecap="round" stroke-linejoin="round"/><text x="58" y="66" class="n" text-anchor="middle">REST API</text></g>
    <g transform="translate(161 165)"><rect class="tile" width="116" height="84" rx="13"/><path d="M43 43c0-17 8-26 17-26 12 0 18 12 12 23-4 7-15 10-29 3Z" stroke="#F4F4F5" stroke-width="3"/><text x="58" y="66" class="n" text-anchor="middle">Flask</text></g>
    <g transform="translate(297 165)"><rect class="tile" width="116" height="84" rx="13"/><text x="58" y="31" class="m" fill="#F59E0B">SQL</text><text x="58" y="66" class="n" text-anchor="middle">SQL</text></g>
    <g transform="translate(433 165)"><rect class="tile" width="116" height="84" rx="13"/><path d="M44 19h28v24H44zM48 24h20M48 30h20M48 36h12" stroke="#38BDF8" stroke-width="3"/><text x="58" y="66" class="n" text-anchor="middle">Data Pipelines</text></g>
  </g>

  <g transform="translate(609 307)"><rect width="573" height="271" rx="16" fill="url(#panel)" stroke="#284139"/><rect width="4" height="271" rx="2" fill="#22C55E"/><circle cx="30" cy="31" r="7" fill="#22C55E"/><text x="48" y="38" class="h">Engineering Tools &amp; Platforms</text>
    <g transform="translate(25 65)"><rect class="tile" width="116" height="84" rx="13"/><path d="M42 20l10-10 24 24-10 10Z" fill="#F05032"/><circle cx="52" cy="20" r="3" fill="#FFF"/><circle cx="66" cy="34" r="3" fill="#FFF"/><path d="M52 20l14 14M57 25v10" stroke="#FFF" stroke-width="2"/><text x="58" y="66" class="n" text-anchor="middle">Git</text></g>
    <g transform="translate(161 65)"><rect class="tile" width="116" height="84" rx="13"/><circle cx="58" cy="30" r="18" fill="#F4F4F5"/><path d="M49 42c-1-5 0-8 2-10-7-1-10-4-10-9 0-3 1-5 3-7 0-2 0-4 1-5 4 0 7 2 8 3 4-1 7-1 11 0 2-2 5-3 8-3 1 2 1 4 1 5 2 2 3 4 3 7 0 5-3 8-10 9 2 2 3 5 2 10" fill="#161B22"/><text x="58" y="66" class="n" text-anchor="middle">GitHub</text></g>
    <g transform="translate(297 65)"><rect class="tile" width="116" height="84" rx="13"/><circle cx="58" cy="30" r="18" fill="#FCC624"/><text x="58" y="34" class="m" font-size="13" fill="#1A1A1A">Tux</text><text x="58" y="66" class="n" text-anchor="middle">Linux</text></g>
    <g transform="translate(433 65)"><rect class="tile" width="116" height="84" rx="13"/><path d="M41 31c0-9 7-16 17-16s17 7 17 16-7 16-17 16-17-7-17-16Z" stroke="#00979D" stroke-width="4"/><path d="M47 31h8M51 27v8M62 31h8" stroke="#00979D" stroke-width="3"/><text x="58" y="66" class="n" text-anchor="middle">Arduino</text></g>
    <g transform="translate(25 165)"><rect class="tile" width="116" height="84" rx="13"/><circle cx="58" cy="31" r="17" fill="#C51A4A"/><circle cx="52" cy="24" r="4" fill="#75A928"/><circle cx="64" cy="24" r="4" fill="#75A928"/><text x="58" y="66" class="n" text-anchor="middle">Raspberry Pi</text></g>
    <g transform="translate(161 165)"><rect class="tile" width="116" height="84" rx="13"/><path d="M43 31 68 13l8 4v28l-8 4Z" fill="#007ACC"/><path d="m43 31 25 18V13Z" fill="#23A8F2"/><text x="58" y="66" class="n" text-anchor="middle">VS Code</text></g>
    <g transform="translate(297 165)"><rect class="tile" width="116" height="84" rx="13"/><circle cx="58" cy="31" r="18" fill="#FF6C37"/><path d="m50 40 16-18M61 21l6 1-1 6" stroke="#FFF" stroke-width="3"/><text x="58" y="66" class="n" text-anchor="middle">Postman</text></g>
    <g transform="translate(433 165)"><rect class="tile" width="116" height="84" rx="13"/><path d="M39 18h38v27H39z" stroke="#4285F4" stroke-width="3"/><path d="M39 25h38M47 21h1M53 21h1" stroke="#4285F4" stroke-width="2"/><text x="58" y="66" class="n" text-anchor="middle">Browser APIs</text></g>
  </g>
</svg>
