<svg width="1200" height="132" viewBox="0 0 1200 132" fill="none" xmlns="http://www.w3.org/2000/svg" role="img" aria-label="Human-Dog Detection"><defs><linearGradient id="card" x1="0" y1="0" x2="1" y2="1"><stop stop-color="#111820"/><stop offset="1" stop-color="#0E1319"/></linearGradient><radialGradient id="orb" cx=".5" cy=".35" r=".7"><stop stop-color="var(--a)" stop-opacity=".28"/><stop offset="1" stop-color="var(--a)" stop-opacity=".03"/></radialGradient><filter id="glow" x="-80%" y="-80%" width="260%" height="260%"><feGaussianBlur stdDeviation="4"/></filter></defs><rect x="1" y="1" width="1198" height="130" rx="18" fill="url(#card)" stroke="#29333E"/><rect x="1" y="1" width="5" height="130" rx="2.5" fill="#8B5CF6"/><circle cx="60" cy="66" r="34" fill="#8B5CF6" fill-opacity=".08" stroke="#8B5CF6" stroke-opacity=".55"/><circle cx="60" cy="66" r="23" fill="#8B5CF6" fill-opacity=".13" filter="url(#glow)"/><rect x="40" y="46" width="40" height="40" rx="10" fill="#8B5CF6" fill-opacity=".14" stroke="#A78BFA" stroke-width="1.6"/><path d="M46 58v-6h6M74 58v-6h-6M46 74v6h6M74 74v6h-6" stroke="#C4B5FD" stroke-width="2.2" stroke-linecap="round"/><circle cx="60" cy="66" r="10" stroke="#38BDF8" stroke-width="2.4"/><circle cx="60" cy="66" r="4" fill="#38BDF8"/><circle cx="60" cy="66" r="15" stroke="#8B5CF6" stroke-opacity=".45"/><text x="112" y="56" fill="#F5F7FA" font-family="Arial,sans-serif" font-size="23" font-weight="700">Human-Dog Detection</text><text x="112" y="86" fill="#AAB4C0" font-family="Arial,sans-serif" font-size="14">Real-time human and dog detection with automatic alerts for safety-critical environments.</text><g><rect x="760" y="16" width="84" height="100" rx="13" fill="#151B23" stroke="#303B47"/><rect x="775" y="16" width="54" height="2" rx="1" fill="#FFD43B" fill-opacity=".8"/><svg x="784" y="30" width="36" height="36" viewBox="0 0 128 128"><linearGradient id="python-original-a" gradientUnits="userSpaceOnUse" x1="70.252" y1="1237.476" x2="170.659" y2="1151.089" gradientTransform="matrix(.563 0 0 -.568 -29.215 707.817)"><stop offset="0" stop-color="#5A9FD4"/><stop offset="1" stop-color="#306998"/></linearGradient><linearGradient id="python-original-b" gradientUnits="userSpaceOnUse" x1="209.474" y1="1098.811" x2="173.62" y2="1149.537" gradientTransform="matrix(.563 0 0 -.568 -29.215 707.817)"><stop offset="0" stop-color="#FFD43B"/><stop offset="1" stop-color="#FFE873"/></linearGradient><path fill="url(#python-original-a)" d="M63.391 1.988c-4.222.02-8.252.379-11.8 1.007-10.45 1.846-12.346 5.71-12.346 12.837v9.411h24.693v3.137H29.977c-7.176 0-13.46 4.313-15.426 12.521-2.268 9.405-2.368 15.275 0 25.096 1.755 7.311 5.947 12.519 13.124 12.519h8.491V67.234c0-8.151 7.051-15.34 15.426-15.34h24.665c6.866 0 12.346-5.654 12.346-12.548V15.833c0-6.693-5.646-11.72-12.346-12.837-4.244-.706-8.645-1.027-12.866-1.008zM50.037 9.557c2.55 0 4.634 2.117 4.634 4.721 0 2.593-2.083 4.69-4.634 4.69-2.56 0-4.633-2.097-4.633-4.69-.001-2.604 2.073-4.721 4.633-4.721z" transform="translate(0 10.26)"/><path fill="url(#python-original-b)" d="M91.682 28.38v10.966c0 8.5-7.208 15.655-15.426 15.655H51.591c-6.756 0-12.346 5.783-12.346 12.549v23.515c0 6.691 5.818 10.628 12.346 12.547 7.816 2.297 15.312 2.713 24.665 0 6.216-1.801 12.346-5.423 12.346-12.547v-9.412H63.938v-3.138h37.012c7.176 0 9.852-5.005 12.348-12.519 2.578-7.735 2.467-15.174 0-25.096-1.774-7.145-5.161-12.521-12.348-12.521h-9.268zM77.809 87.927c2.561 0 4.634 2.097 4.634 4.692 0 2.602-2.074 4.719-4.634 4.719-2.55 0-4.633-2.117-4.633-4.719 0-2.595 2.083-4.692 4.633-4.692z" transform="translate(0 10.26)"/><radialGradient id="python-original-c" cx="1825.678" cy="444.45" r="26.743" gradientTransform="matrix(0 -.24 -1.055 0 532.979 557.576)" gradientUnits="userSpaceOnUse"><stop offset="0" stop-color="#B8B8B8" stop-opacity=".498"/><stop offset="1" stop-color="#7F7F7F" stop-opacity="0"/></radialGradient><path opacity=".444" fill="url(#python-original-c)" d="M97.309 119.597c0 3.543-14.816 6.416-33.091 6.416-18.276 0-33.092-2.873-33.092-6.416 0-3.544 14.815-6.417 33.092-6.417 18.275 0 33.091 2.872 33.091 6.417z"/></svg><text x="802" y="92" text-anchor="middle" fill="#D6DEE8" font-family="Arial,sans-serif" font-size="10.5" font-weight="700">Python</text></g><g><rect x="860" y="16" width="84" height="100" rx="13" fill="#151B23" stroke="#303B47"/><rect x="875" y="16" width="54" height="2" rx="1" fill="#8B5CF6" fill-opacity=".8"/><svg x="884" y="30" width="36" height="36" viewBox="0 0 24 24" fill="#7B61FF" color="#7B61FF"><title>Ultralytics</title><path d="m12.736 7.341-.002 2.897c.012 3.953-3.188 7.177-7.098 7.171-1.553-.003-2.967-.48-4.112-1.313 2.056 3.725 5.999 6.24 10.48 6.245 6.511-.003 11.891-5.343 11.992-11.91l-.002-.027c.006-.151 0-2.951.006-3.075-.01-3.116-2.538-5.677-5.63-5.67-3.105-.006-5.645 2.54-5.634 5.683zM5.629 4.573C2.525 4.573 0 7.118 0 10.246s2.525 5.673 5.63 5.673c3.103 0 5.629-2.545 5.629-5.673s-2.526-5.673-5.63-5.673"/></svg><text x="902" y="92" text-anchor="middle" fill="#D6DEE8" font-family="Arial,sans-serif" font-size="10.5" font-weight="700">YOLO</text></g><g><rect x="960" y="16" width="84" height="100" rx="13" fill="#151B23" stroke="#303B47"/><rect x="975" y="16" width="54" height="2" rx="1" fill="#38BDF8" fill-opacity=".8"/><svg x="984" y="30" width="36" height="36" viewBox="0 0 128 128"><path d="M112.871 66.602c9.004 5.277 15.055 15.027 15.074 26.191.032 16.805-13.617 30.453-30.48 30.48-16.863.032-30.559-13.57-30.59-30.375-.02-11.164 5.996-20.933 14.984-26.246l8.774 14.778c.219.37.094.847-.262 1.09-3.32 2.25-5.496 6.046-5.488 10.347.012 6.895 5.633 12.477 12.55 12.461 6.919-.012 12.516-5.61 12.504-12.504-.007-4.3-2.195-8.09-5.523-10.328-.355-.242-.484-.719-.266-1.09zm0 0" fill="#128dff"/><path d="M45.477 66.422a30.495 30.495 0 00-14.907-3.867C13.703 62.555.035 76.18.035 92.985c0 16.804 13.668 30.43 30.535 30.43 16.946 0 30.95-14.337 30.524-31.212H43.906c-.453 0-.808.383-.812.832-.043 6.723-5.672 12.434-12.524 12.434-6.922 0-12.527-5.59-12.527-12.485 0-6.894 5.605-12.484 12.527-12.484 1.809 0 3.532.383 5.086 1.074.383.168.836.04 1.047-.316zm0 0" fill="#8bda67"/><path d="M47.945 61.648c-8.992-5.293-15.027-15.054-15.027-26.218C32.918 18.625 46.59 5 63.453 5s30.535 13.625 30.535 30.43c0 11.164-6.035 20.925-15.027 26.218L70.21 46.86c-.219-.37-.094-.847.266-1.09 3.32-2.246 5.503-6.039 5.503-10.34 0-6.894-5.609-12.484-12.527-12.484-6.918 0-12.527 5.59-12.527 12.485 0 4.3 2.183 8.093 5.504 10.34.36.242.484.718.265 1.09zm0 0" fill="#ff2a44"/></svg><text x="1002" y="92" text-anchor="middle" fill="#D6DEE8" font-family="Arial,sans-serif" font-size="10.5" font-weight="700">OpenCV</text></g><circle cx="1150" cy="66" r="27" fill="#161D25" stroke="#3A4653"/><path d="m1146 56 10 10-10 10M1137 66h19" stroke="#F4F7FA" stroke-width="2.3" stroke-linecap="round" stroke-linejoin="round"/></svg>
