<svg width="1200" height="104" viewBox="0 0 1200 104" fill="none" xmlns="http://www.w3.org/2000/svg" role="img" aria-label="Human Dog Detection">
  <rect x="1" y="1" width="1198" height="102" rx="16" fill="#10151B" stroke="#29313A"/>
  <rect x="1" y="1" width="5" height="102" rx="2.5" fill="#5C3EE8"/>
  <g transform="translate(30 25)">
    <circle cx="26" cy="26" r="25" fill="#1A1730" stroke="#5C3EE8" stroke-opacity="0.65"/>
    <path d="M10 26s6-11 16-11 16 11 16 11-6 11-16 11S10 26 10 26Z" stroke="#A78BFA" stroke-width="2"/>
    <circle cx="26" cy="26" r="6" stroke="#38BDF8" stroke-width="2"/><circle cx="26" cy="26" r="2" fill="#38BDF8"/>
  </g>
  <text x="104" y="43" fill="#F4F4F5" font-family="Arial, Helvetica, sans-serif" font-size="22" font-weight="700">Human-Dog Detection</text>
  <text x="104" y="70" fill="#AAB2BD" font-family="Arial, Helvetica, sans-serif" font-size="14">Real-time human and dog detection with automatic alerts for safety-critical environments.</text>
  <g font-family="'Courier New', monospace" font-size="11" font-weight="700">
    <rect x="844" y="31" width="88" height="30" rx="15" fill="#3776AB" fill-opacity="0.14" stroke="#3776AB" stroke-opacity="0.55"/><text x="861" y="50" fill="#69A9E0">PYTHON</text>
    <rect x="944" y="31" width="72" height="30" rx="15" fill="#A78BFA" fill-opacity="0.12" stroke="#A78BFA" stroke-opacity="0.45"/><text x="962" y="50" fill="#C4B5FD">YOLO</text>
    <rect x="1028" y="31" width="88" height="30" rx="15" fill="#5C3EE8" fill-opacity="0.12" stroke="#5C3EE8" stroke-opacity="0.45"/><text x="1044" y="50" fill="#8B7AF0">OPENCV</text>
  </g>
  <path d="m1150 43 9 9-9 9M1138 52h21" stroke="#F4F4F5" stroke-width="2" stroke-linecap="round" stroke-linejoin="round"/>
</svg>
