<svg width="1200" height="104" viewBox="0 0 1200 104" fill="none" xmlns="http://www.w3.org/2000/svg" role="img" aria-label="Human Dog Detection">
  <rect x="1" y="1" width="1198" height="102" rx="16" fill="#10151B" stroke="#29313A"/>
  <rect x="1" y="1" width="5" height="102" rx="2.5" fill="#5C3EE8"/>
  <g transform="translate(30 25)">
    <circle cx="26" cy="26" r="25" fill="#1A1730" stroke="#5C3EE8" stroke-opacity="0.65"/>
    <path d="M10 26s6-11 16-11 16 11 16 11-6 11-16 11S10 26 10 26Z" stroke="#A78BFA" stroke-width="2"/>
    <circle cx="26" cy="26" r="6" stroke="#38BDF8" stroke-width="2"/><circle cx="26" cy="26" r="2" fill="#38BDF8"/>
  </g>
  <text x="104" y="43" fill="#F4F4F5" font-family="Arial, Helvetica, sans-serif" font-size="22" font-weight="700">Human-Dog Detection</text>
  <text x="104" y="70" fill="#AAB2BD" font-family="Arial, Helvetica, sans-serif" font-size="14">Real-time human and dog detection with automatic alerts for safety-critical environments.</text>
  <g font-family="'Courier New', monospace" font-size="11" font-weight="700">
    <rect x="790" y="31" width="106" height="30" rx="15" fill="#3776AB" fill-opacity="0.14" stroke="#3776AB" stroke-opacity="0.55"/>
    <circle cx="806" cy="43" r="5" fill="#3776AB"/><circle cx="811" cy="49" r="5" fill="#FFD43B"/><text x="820" y="50" fill="#69A9E0">PYTHON</text>
    <rect x="908" y="31" width="90" height="30" rx="15" fill="#A78BFA" fill-opacity="0.12" stroke="#A78BFA" stroke-opacity="0.45"/>
    <circle cx="924" cy="46" r="7" stroke="#C4B5FD"/><circle cx="924" cy="46" r="2" fill="#C4B5FD"/><text x="938" y="50" fill="#C4B5FD">YOLO</text>
    <rect x="1010" y="31" width="106" height="30" rx="15" fill="#5C3EE8" fill-opacity="0.12" stroke="#5C3EE8" stroke-opacity="0.45"/>
    <circle cx="1024" cy="43" r="4" fill="#FF0101"/><circle cx="1029" cy="50" r="4" fill="#00D800"/><circle cx="1019" cy="50" r="4" fill="#0101FF"/><text x="1038" y="50" fill="#8B7AF0">OPENCV</text>
  </g>
  <path d="m1150 43 9 9-9 9M1138 52h21" stroke="#F4F4F5" stroke-width="2" stroke-linecap="round" stroke-linejoin="round"/>
</svg>
