<svg width="1200" height="112" viewBox="0 0 1200 112" fill="none" xmlns="http://www.w3.org/2000/svg" role="img" aria-label="SABIS Assistant">
 <rect x="1" y="1" width="1198" height="110" rx="17" fill="#10151B" stroke="#29313A"/><rect x="1" y="1" width="5" height="110" rx="2.5" fill="#4285F4"/>
 <circle cx="57" cy="56" r="28" fill="#171C24" stroke="#4285F4" stroke-opacity=".7"/><path d="M43 49h28v21H43zM48 44h18v5H48z" stroke="#73A7F7" stroke-width="2"/><path d="m49 59 5 5 10-12" stroke="#34A853" stroke-width="2.5" stroke-linecap="round" stroke-linejoin="round"/>
 <text x="105" y="47" fill="#F5F7FA" font-family="Arial,sans-serif" font-size="22" font-weight="700">SABIS Assistant</text><text x="105" y="76" fill="#AAB4C0" font-family="Arial,sans-serif" font-size="14">Grade simulation, academic-calendar tracking and student productivity in one browser extension.</text>
 <g><svg x="849" y="22" width="30" height="30" viewBox="0 0 128 128"><path fill="#F0DB4F" d="M1.408 1.408h125.184v125.185H1.408z"/><path fill="#323330" d="M116.347 96.736c-.917-5.711-4.641-10.508-15.672-14.981-3.832-1.761-8.104-3.022-9.377-5.926-.452-1.69-.512-2.642-.226-3.665.821-3.32 4.784-4.355 7.925-3.403 2.023.678 3.938 2.237 5.093 4.724 5.402-3.498 5.391-3.475 9.163-5.879-1.381-2.141-2.118-3.129-3.022-4.045-3.249-3.629-7.676-5.498-14.756-5.355l-3.688.477c-3.534.893-6.902 2.748-8.877 5.235-5.926 6.724-4.236 18.492 2.975 23.335 7.104 5.332 17.54 6.545 18.873 11.531 1.297 6.104-4.486 8.08-10.234 7.378-4.236-.881-6.592-3.034-9.139-6.949-4.688 2.713-4.688 2.713-9.508 5.485 1.143 2.499 2.344 3.63 4.26 5.795 9.068 9.198 31.76 8.746 35.83-5.176.165-.478 1.261-3.666.38-8.581zM69.462 58.943H57.753l-.048 30.272c0 6.438.333 12.34-.714 14.149-1.713 3.558-6.152 3.117-8.175 2.427-2.059-1.012-3.106-2.451-4.319-4.485-.333-.584-.583-1.036-.667-1.071l-9.52 5.83c1.583 3.249 3.915 6.069 6.902 7.901 4.462 2.678 10.459 3.499 16.731 2.059 4.082-1.189 7.604-3.652 9.448-7.401 2.666-4.915 2.094-10.864 2.07-17.444.06-10.735.001-21.468.001-32.237z"/></svg><text x="864" y="72" text-anchor="middle" fill="#AAB4C0" font-family="Arial,sans-serif" font-size="10" font-weight="700">JavaScript</text></g><g><svg x="943" y="22" width="30" height="30" viewBox="0 0 128 128"><circle fill="#fff" cx="64.149" cy="64.236" r="60.999"/><path fill-opacity=".1" d="M102.966 75.327c0-21.439-17.379-38.819-38.817-38.819s-38.818 17.38-38.818 38.819h11.09c0-15.314 12.415-27.727 27.727-27.727 15.313 0 27.727 12.413 27.727 27.727"/><circle fill-opacity=".1" cx="66.922" cy="71.999" r="21.072"/><linearGradient id="chrome-original-a" gradientUnits="userSpaceOnUse" x1="395.191" y1="484.168" x2="395.191" y2="484.723" gradientTransform="matrix(82 0 0 82 -32341.5 -39660.313)"><stop offset="0" stop-color="#81B4E0"/><stop offset="1" stop-color="#0C5A94"/></linearGradient><circle fill="url(#chrome-original-a)" cx="64.149" cy="64.235" r="22.736"/><linearGradient id="chrome-original-b" gradientUnits="userSpaceOnUse" x1="-608.91" y1="-597.648" x2="-608.91" y2="-547.185" gradientTransform="translate(675 599.775)"><stop offset="0" stop-color="#F06B59"/><stop offset="1" stop-color="#DF2227"/></linearGradient><path fill="url(#chrome-original-b)" d="M119.602 36.508C104.336 5.792 67.06-6.732 36.343 8.534A62.105 62.105 0 0012.578 29.3l24.955 43.253c-4.597-14.606 3.521-30.174 18.127-34.77a27.676 27.676 0 017.935-1.274"/><linearGradient id="chrome-original-c" gradientUnits="userSpaceOnUse" x1="-657.835" y1="-491.393" x2="-632.327" y2="-533.537" gradientTransform="translate(675 599.775)"><stop offset="0" stop-color="#388B41"/><stop offset="1" stop-color="#4CB749"/></linearGradient><path fill="url(#chrome-original-c)" d="M12.578 29.3c-19.1 28.492-11.486 67.071 17.005 86.171a62.133 62.133 0 0029.575 10.319l26.063-44.363c-9.745 11.811-27.22 13.486-39.032 3.74a27.717 27.717 0 01-8.657-12.613"/><linearGradient id="chrome-original-d" gradientUnits="userSpaceOnUse" x1="-572.385" y1="-486.91" x2="-599.557" y2="-552.345" gradientTransform="translate(675 599.775)"><stop offset="0" stop-color="#E4B022"/><stop offset=".3" stop-color="#FCD209"/></linearGradient><path fill="url(#chrome-original-d)" d="M59.158 125.791c34.204 2.585 64.027-23.047 66.613-57.25a62.097 62.097 0 00-6.17-32.031H63.595c15.312.07 27.67 12.541 27.598 27.854a27.725 27.725 0 01-5.972 17.064"/><linearGradient id="chrome-original-e" gradientUnits="userSpaceOnUse" x1="-649.391" y1="-528.885" x2="-649.391" y2="-573.247" gradientTransform="translate(675 599.775)"><stop offset="0" stop-opacity=".15"/><stop offset=".3" stop-opacity=".06"/><stop offset="1" stop-opacity=".03"/></linearGradient><path fill="url(#chrome-original-e)" d="M12.578 29.3l24.955 43.253a27.725 27.725 0 011.107-18.854L13.686 27.636"/><linearGradient id="chrome-original-f" gradientUnits="userSpaceOnUse" x1="-588.158" y1="-514.559" x2="-618.657" y2="-483.505" gradientTransform="translate(675 599.775)"><stop offset="0" stop-opacity=".15"/><stop offset=".3" stop-opacity=".06"/><stop offset="1" stop-opacity=".03"/></linearGradient><path fill="url(#chrome-original-f)" d="M59.158 125.791l26.063-44.363a27.731 27.731 0 01-16.082 9.426l-11.091 34.937"/><linearGradient id="chrome-original-g" gradientUnits="userSpaceOnUse" x1="-588.6" y1="-505.621" x2="-584.163" y2="-549.431" gradientTransform="translate(675 599.775)"><stop offset="0" stop-opacity=".15"/><stop offset=".3" stop-opacity=".06"/><stop offset="1" stop-opacity=".03"/></linearGradient><path fill="url(#chrome-original-g)" d="M119.602 36.508H63.595a27.727 27.727 0 0121.626 10.537l35.491-8.873"/></svg><text x="958" y="72" text-anchor="middle" fill="#AAB4C0" font-family="Arial,sans-serif" font-size="10" font-weight="700">Chrome MV3</text></g>
 <circle cx="1150" cy="56" r="25" fill="#151C24" stroke="#36414D"/><path d="m1146 47 9 9-9 9M1138 56h17" stroke="#F4F7FA" stroke-width="2.2" stroke-linecap="round" stroke-linejoin="round"/>
 </svg>
