<svg width="1200" height="104" viewBox="0 0 1200 104" fill="none" xmlns="http://www.w3.org/2000/svg" role="img" aria-label="Vehicles Type Counter">
  <rect x="1" y="1" width="1198" height="102" rx="16" fill="#10151B" stroke="#29313A"/>
  <rect x="1" y="1" width="5" height="102" rx="2.5" fill="#F59E0B"/>
  <g transform="translate(30 25)">
    <circle cx="26" cy="26" r="25" fill="#211A10" stroke="#F59E0B" stroke-opacity="0.65"/>
    <path d="M11 29h30l-3-9H17l-6 9Z" stroke="#F59E0B" stroke-width="2" stroke-linejoin="round"/>
    <path d="M12 29v8h5M40 29v8h-5M18 37h16" stroke="#F59E0B" stroke-width="2" stroke-linecap="round"/>
    <circle cx="18" cy="30" r="2" fill="#F59E0B"/><circle cx="34" cy="30" r="2" fill="#F59E0B"/>
  </g>
  <text x="104" y="43" fill="#F4F4F5" font-family="Arial, Helvetica, sans-serif" font-size="22" font-weight="700">Vehicles Type Counter</text>
  <text x="104" y="70" fill="#AAB2BD" font-family="Arial, Helvetica, sans-serif" font-size="14">Vehicle classification, counting and database-backed traffic analysis from camera streams.</text>
  <g font-family="'Courier New', monospace" font-size="11" font-weight="700">
    <rect x="844" y="31" width="88" height="30" rx="15" fill="#3776AB" fill-opacity="0.14" stroke="#3776AB" stroke-opacity="0.55"/><text x="861" y="50" fill="#69A9E0">PYTHON</text>
    <rect x="944" y="31" width="68" height="30" rx="15" fill="#F59E0B" fill-opacity="0.12" stroke="#F59E0B" stroke-opacity="0.45"/><text x="963" y="50" fill="#FBBF24">ML</text>
    <rect x="1024" y="31" width="92" height="30" rx="15" fill="#4479A1" fill-opacity="0.14" stroke="#4479A1" stroke-opacity="0.5"/><text x="1040" y="50" fill="#6FA7D0">DATABASE</text>
  </g>
  <path d="m1150 43 9 9-9 9M1138 52h21" stroke="#F4F4F5" stroke-width="2" stroke-linecap="round" stroke-linejoin="round"/>
</svg>
