<svg width="1200" height="132" viewBox="0 0 1200 132" fill="none" xmlns="http://www.w3.org/2000/svg" role="img" aria-label="Vehicles Type Counter"><defs><linearGradient id="card" x1="0" y1="0" x2="1" y2="1"><stop stop-color="#111820"/><stop offset="1" stop-color="#0E1319"/></linearGradient><radialGradient id="orb" cx=".5" cy=".35" r=".7"><stop stop-color="var(--a)" stop-opacity=".28"/><stop offset="1" stop-color="var(--a)" stop-opacity=".03"/></radialGradient><filter id="glow" x="-80%" y="-80%" width="260%" height="260%"><feGaussianBlur stdDeviation="4"/></filter></defs><rect x="1" y="1" width="1198" height="130" rx="18" fill="url(#card)" stroke="#29333E"/><rect x="1" y="1" width="5" height="130" rx="2.5" fill="#F59E0B"/><circle cx="60" cy="66" r="34" fill="#F59E0B" fill-opacity=".08" stroke="#F59E0B" stroke-opacity=".55"/><circle cx="60" cy="66" r="23" fill="#F59E0B" fill-opacity=".13" filter="url(#glow)"/><path d="M47 75V59l5-12h16l5 12v16" fill="#F59E0B" fill-opacity=".16" stroke="#FBBF24" stroke-width="2.2" stroke-linejoin="round"/><path d="M51 59h18M52 70h16" stroke="#FBBF24" stroke-width="2.2" stroke-linecap="round"/><circle cx="52" cy="75" r="3" fill="#FBBF24"/><circle cx="68" cy="75" r="3" fill="#FBBF24"/><path d="M42 52c-4 4-6 9-6 14M78 52c4 4 6 9 6 14" stroke="#F59E0B" stroke-width="2" stroke-linecap="round" opacity=".75"/><text x="112" y="56" fill="#F5F7FA" font-family="Arial,sans-serif" font-size="23" font-weight="700">Vehicles Type Counter</text><text x="112" y="86" fill="#AAB4C0" font-family="Arial,sans-serif" font-size="14">Vehicle classification, counting and MySQL-backed traffic analysis from camera streams.</text><g><rect x="760" y="16" width="84" height="100" rx="13" fill="#151B23" stroke="#303B47"/><rect x="775" y="16" width="54" height="2" rx="1" fill="#FFD43B" fill-opacity=".8"/><svg x="784" y="30" width="36" height="36" viewBox="0 0 128 128"><linearGradient id="python-original-a" gradientUnits="userSpaceOnUse" x1="70.252" y1="1237.476" x2="170.659" y2="1151.089" gradientTransform="matrix(.563 0 0 -.568 -29.215 707.817)"><stop offset="0" stop-color="#5A9FD4"/><stop offset="1" stop-color="#306998"/></linearGradient><linearGradient id="python-original-b" gradientUnits="userSpaceOnUse" x1="209.474" y1="1098.811" x2="173.62" y2="1149.537" gradientTransform="matrix(.563 0 0 -.568 -29.215 707.817)"><stop offset="0" stop-color="#FFD43B"/><stop offset="1" stop-color="#FFE873"/></linearGradient><path fill="url(#python-original-a)" d="M63.391 1.988c-4.222.02-8.252.379-11.8 1.007-10.45 1.846-12.346 5.71-12.346 12.837v9.411h24.693v3.137H29.977c-7.176 0-13.46 4.313-15.426 12.521-2.268 9.405-2.368 15.275 0 25.096 1.755 7.311 5.947 12.519 13.124 12.519h8.491V67.234c0-8.151 7.051-15.34 15.426-15.34h24.665c6.866 0 12.346-5.654 12.346-12.548V15.833c0-6.693-5.646-11.72-12.346-12.837-4.244-.706-8.645-1.027-12.866-1.008zM50.037 9.557c2.55 0 4.634 2.117 4.634 4.721 0 2.593-2.083 4.69-4.634 4.69-2.56 0-4.633-2.097-4.633-4.69-.001-2.604 2.073-4.721 4.633-4.721z" transform="translate(0 10.26)"/><path fill="url(#python-original-b)" d="M91.682 28.38v10.966c0 8.5-7.208 15.655-15.426 15.655H51.591c-6.756 0-12.346 5.783-12.346 12.549v23.515c0 6.691 5.818 10.628 12.346 12.547 7.816 2.297 15.312 2.713 24.665 0 6.216-1.801 12.346-5.423 12.346-12.547v-9.412H63.938v-3.138h37.012c7.176 0 9.852-5.005 12.348-12.519 2.578-7.735 2.467-15.174 0-25.096-1.774-7.145-5.161-12.521-12.348-12.521h-9.268zM77.809 87.927c2.561 0 4.634 2.097 4.634 4.692 0 2.602-2.074 4.719-4.634 4.719-2.55 0-4.633-2.117-4.633-4.719 0-2.595 2.083-4.692 4.633-4.692z" transform="translate(0 10.26)"/><radialGradient id="python-original-c" cx="1825.678" cy="444.45" r="26.743" gradientTransform="matrix(0 -.24 -1.055 0 532.979 557.576)" gradientUnits="userSpaceOnUse"><stop offset="0" stop-color="#B8B8B8" stop-opacity=".498"/><stop offset="1" stop-color="#7F7F7F" stop-opacity="0"/></radialGradient><path opacity=".444" fill="url(#python-original-c)" d="M97.309 119.597c0 3.543-14.816 6.416-33.091 6.416-18.276 0-33.092-2.873-33.092-6.416 0-3.544 14.815-6.417 33.092-6.417 18.275 0 33.091 2.872 33.091 6.417z"/></svg><text x="802" y="92" text-anchor="middle" fill="#D6DEE8" font-family="Arial,sans-serif" font-size="10.5" font-weight="700">Python</text></g><g><rect x="860" y="16" width="84" height="100" rx="13" fill="#151B23" stroke="#303B47"/><rect x="875" y="16" width="54" height="2" rx="1" fill="#8B5CF6" fill-opacity=".8"/><svg x="884" y="30" width="36" height="36" viewBox="0 0 24 24" fill="#7B61FF" color="#7B61FF"><title>Ultralytics</title><path d="m12.736 7.341-.002 2.897c.012 3.953-3.188 7.177-7.098 7.171-1.553-.003-2.967-.48-4.112-1.313 2.056 3.725 5.999 6.24 10.48 6.245 6.511-.003 11.891-5.343 11.992-11.91l-.002-.027c.006-.151 0-2.951.006-3.075-.01-3.116-2.538-5.677-5.63-5.67-3.105-.006-5.645 2.54-5.634 5.683zM5.629 4.573C2.525 4.573 0 7.118 0 10.246s2.525 5.673 5.63 5.673c3.103 0 5.629-2.545 5.629-5.673s-2.526-5.673-5.63-5.673"/></svg><text x="902" y="92" text-anchor="middle" fill="#D6DEE8" font-family="Arial,sans-serif" font-size="10.5" font-weight="700">YOLO</text></g><g><rect x="960" y="16" width="84" height="100" rx="13" fill="#151B23" stroke="#303B47"/><rect x="975" y="16" width="54" height="2" rx="1" fill="#4479A1" fill-opacity=".8"/><svg x="984" y="30" width="36" height="36" viewBox="0 0 128 128"><path fill="#00618A" d="M117.688 98.242c-6.973-.191-12.297.461-16.852 2.379-1.293.547-3.355.559-3.566 2.18.711.746.82 1.859 1.387 2.777 1.086 1.754 2.922 4.113 4.559 5.352 1.789 1.348 3.633 2.793 5.551 3.961 3.414 2.082 7.223 3.27 10.504 5.352 1.938 1.23 3.859 2.777 5.75 4.164.934.684 1.563 1.75 2.773 2.18v-.195c-.637-.812-.801-1.93-1.387-2.777l-2.578-2.578c-2.52-3.344-5.719-6.281-9.117-8.719-2.711-1.949-8.781-4.578-9.91-7.73l-.199-.199c1.922-.219 4.172-.914 5.949-1.391 2.98-.797 5.645-.59 8.719-1.387l4.164-1.187v-.793c-1.555-1.594-2.664-3.707-4.359-5.152-4.441-3.781-9.285-7.555-14.273-10.703-2.766-1.746-6.184-2.883-9.117-4.363-.988-.496-2.719-.758-3.371-1.586-1.539-1.961-2.379-4.449-3.566-6.738-2.488-4.793-4.93-10.023-7.137-15.066-1.504-3.437-2.484-6.828-4.359-9.91-9-14.797-18.687-23.73-33.695-32.508-3.195-1.867-7.039-2.605-11.102-3.57l-6.543-.395c-1.332-.555-2.715-2.184-3.965-2.977C16.977 3.52 4.223-3.312.539 5.672-1.785 11.34 4.016 16.871 6.09 19.746c1.457 2.012 3.32 4.273 4.359 6.539.688 1.492.805 2.984 1.391 4.559 1.438 3.883 2.695 8.109 4.559 11.695.941 1.816 1.98 3.727 3.172 5.352.727.996 1.98 1.438 2.18 2.973-1.227 1.715-1.297 4.375-1.984 6.543-3.098 9.77-1.926 21.91 2.578 29.137 1.383 2.223 4.641 6.98 9.117 5.156 3.918-1.598 3.043-6.539 4.164-10.902.254-.988.098-1.715.594-2.379v.199l3.57 7.133c2.641 4.254 7.324 8.699 11.297 11.699 2.059 1.555 3.68 4.242 6.344 5.152v-.199h-.199c-.516-.805-1.324-1.137-1.98-1.781-1.551-1.523-3.277-3.414-4.559-5.156-3.613-4.902-6.805-10.27-9.711-15.855-1.391-2.668-2.598-5.609-3.77-8.324-.453-1.047-.445-2.633-1.387-3.172-1.281 1.988-3.172 3.598-4.164 5.945-1.582 3.754-1.789 8.336-2.375 13.082-.348.125-.195.039-.398.199-2.762-.668-3.73-3.508-4.758-5.949-2.594-6.164-3.078-16.09-.793-23.191.59-1.836 3.262-7.617 2.18-9.316-.516-1.691-2.219-2.672-3.172-3.965-1.18-1.598-2.355-3.703-3.172-5.551-2.125-4.805-3.113-10.203-5.352-15.062-1.07-2.324-2.875-4.676-4.359-6.738-1.645-2.289-3.484-3.977-4.758-6.742-.453-.984-1.066-2.559-.398-3.566.215-.684.516-.969 1.191-1.191 1.148-.887 4.352.297 5.547.793 3.18 1.32 5.832 2.578 8.527 4.363 1.289.855 2.598 2.512 4.16 2.973h1.785c2.789.641 5.914.195 8.523.988 4.609 1.402 8.738 3.582 12.488 5.949 11.422 7.215 20.766 17.48 27.156 29.734 1.027 1.973 1.473 3.852 2.379 5.945 1.824 4.219 4.125 8.559 5.941 12.688 1.816 4.113 3.582 8.27 6.148 11.695 1.348 1.801 6.551 2.766 8.918 3.766 1.66.699 4.379 1.43 5.949 2.379 3 1.809 5.906 3.965 8.723 5.945 1.402.992 5.73 3.168 5.945 4.957zm-88.605-75.52c-1.453-.027-2.48.156-3.566.395v.199h.195c.695 1.422 1.918 2.34 2.777 3.566l1.98 4.164.199-.195c1.227-.867 1.789-2.25 1.781-4.363-.492-.52-.562-1.164-.992-1.785-.562-.824-1.66-1.289-2.375-1.98zm0 0"/></svg><text x="1002" y="92" text-anchor="middle" fill="#D6DEE8" font-family="Arial,sans-serif" font-size="10.5" font-weight="700">MySQL</text></g><circle cx="1150" cy="66" r="27" fill="#161D25" stroke="#3A4653"/><path d="m1146 56 10 10-10 10M1137 66h19" stroke="#F4F7FA" stroke-width="2.3" stroke-linecap="round" stroke-linejoin="round"/></svg>
