<svg width="1200" height="112" viewBox="0 0 1200 112" fill="none" xmlns="http://www.w3.org/2000/svg" role="img" aria-label="Vehicles Type Counter">
  <rect x="1" y="1" width="1198" height="110" rx="17" fill="#10151B" stroke="#29313A"/><rect x="1" y="1" width="5" height="110" rx="2.5" fill="#F59E0B"/>
  <circle cx="57" cy="56" r="28" fill="#211A10" stroke="#F59E0B" stroke-opacity=".7"/><path d="M41 59h32l-4-11H48l-7 11ZM42 59v9h6M72 59v9h-6M49 68h16" stroke="#FBBF24" stroke-width="2" stroke-linejoin="round"/><circle cx="49" cy="59" r="2" fill="#FBBF24"/><circle cx="66" cy="59" r="2" fill="#FBBF24"/>
  <text x="105" y="47" fill="#F5F7FA" font-family="Arial,sans-serif" font-size="22" font-weight="700">Vehicles Type Counter</text><text x="105" y="76" fill="#AAB4C0" font-family="Arial,sans-serif" font-size="14">Vehicle classification, counting and MySQL-backed traffic analysis from camera streams.</text>
  <text x="1020" y="46" text-anchor="end" fill="#FBBF24" font-family="Arial,sans-serif" font-size="12" font-weight="700" letter-spacing="1">PYTHON · YOLO · MYSQL</text><text x="1020" y="72" text-anchor="end" fill="#73808E" font-family="Arial,sans-serif" font-size="11" letter-spacing="1">VIEW REPOSITORY</text>
  <circle cx="1150" cy="56" r="25" fill="#151C24" stroke="#36414D"/><path d="m1146 47 9 9-9 9M1138 56h17" stroke="#F4F7FA" stroke-width="2.2" stroke-linecap="round" stroke-linejoin="round"/>
</svg>
